<?xml version="1.0" standalone="no"?>
<!DOCTYPE svg PUBLIC "-//W3C//DTD SVG 20010904//EN"
 "http://www.w3.org/TR/2001/REC-SVG-20010904/DTD/svg10.dtd">
<svg version="1.0" xmlns="http://www.w3.org/2000/svg"
 width="500.000000pt" height="500.000000pt" viewBox="0 0 500.000000 500.000000"
 preserveAspectRatio="xMidYMid meet">

<g transform="translate(0.000000,500.000000) scale(0.100000,-0.100000)"
fill="#000000" stroke="none">
<path d="M3015 4326 c-71 -34 -116 -85 -186 -216 -34 -63 -79 -140 -100 -171
l-38 -57 47 -20 c26 -10 61 -22 78 -25 31 -6 32 -4 58 57 15 34 45 90 67 124
67 102 124 128 186 84 34 -24 98 -139 107 -192 9 -49 -19 -98 -69 -124 -82
-42 -317 -30 -458 24 -82 31 -147 87 -210 182 -31 46 -66 93 -79 105 -39 37
-98 56 -173 56 -94 1 -164 -23 -209 -73 -42 -47 -60 -104 -81 -260 -14 -102
-36 -213 -51 -262 -5 -16 -3 -17 38 -2 98 37 350 17 520 -41 40 -14 76 -25 79
-25 3 0 13 19 23 41 26 58 88 114 149 136 45 15 86 18 287 18 224 0 237 1 285
23 168 77 199 230 92 450 -41 84 -87 135 -149 166 -69 34 -144 35 -213 2z"/>
<path d="M3480 3795 c-17 -53 -101 -139 -162 -166 -51 -23 -63 -24 -293 -25
-218 -1 -244 -3 -285 -21 -48 -22 -94 -62 -115 -103 -31 -59 -106 -347 -190
-727 -83 -377 -130 -504 -220 -596 -24 -24 -61 -51 -82 -61 -33 -15 -41 -24
-51 -62 -34 -128 -121 -268 -323 -519 -80 -100 -159 -201 -176 -225 -69 -101
-123 -239 -123 -314 l0 -29 88 6 c362 26 728 201 1004 479 129 130 207 270
343 613 173 437 253 570 445 739 202 177 351 332 389 404 38 73 51 158 31 216
-7 21 -45 86 -84 144 -40 59 -96 146 -125 195 -29 48 -54 87 -56 87 -2 0 -9
-16 -15 -35z m-252 -732 l61 -103 -42 -29 c-64 -44 -168 -157 -225 -243 -66
-101 -122 -218 -226 -470 -92 -224 -171 -388 -185 -388 -5 0 -42 41 -82 91
l-72 91 60 121 c34 67 98 210 143 317 135 320 209 453 323 578 57 62 170 154
177 145 4 -5 34 -54 68 -110z"/>
<path d="M1905 3466 c-17 -7 -43 -28 -58 -45 -22 -27 -27 -42 -27 -88 0 -49 2
-54 18 -48 121 50 384 32 570 -37 29 -11 56 -18 58 -15 3 2 14 37 25 77 17 58
18 74 8 81 -29 18 -173 60 -254 74 -109 19 -298 19 -340 1z"/>
<path d="M3876 3194 c-31 -166 -98 -254 -400 -528 -187 -170 -280 -314 -455
-707 -189 -424 -250 -528 -398 -669 -255 -245 -577 -412 -909 -471 -146 -26
-491 -32 -589 -11 -90 20 -183 51 -249 84 -32 16 -61 27 -64 24 -12 -12 20
-86 49 -116 103 -103 368 -157 715 -147 310 9 491 56 810 211 486 237 957 527
1642 1014 72 52 132 96 132 99 0 2 -24 -9 -52 -25 -214 -122 -1080 -563 -1160
-591 l-27 -10 15 32 c12 24 39 45 107 82 116 63 698 412 712 426 12 13 3 9
-274 -116 -258 -115 -445 -195 -459 -195 -6 0 -1 31 13 73 12 39 46 144 74
232 61 190 120 301 206 390 33 34 132 110 220 170 208 142 338 267 390 376 60
128 57 254 -9 359 l-33 53 -7 -39z"/>
<path d="M1825 3187 c-56 -27 -78 -61 -83 -129 -4 -57 -3 -61 14 -53 122 52
363 37 565 -34 44 -16 81 -26 83 -22 2 3 9 33 16 66 6 33 13 67 16 76 3 12
-15 22 -74 43 -137 47 -192 57 -352 62 -120 3 -162 1 -185 -9z"/>
<path d="M1755 2925 c-56 -24 -78 -59 -83 -127 -4 -52 -2 -60 11 -55 133 51
392 34 584 -38 36 -14 69 -25 73 -25 5 0 14 26 20 58 6 31 14 66 17 78 4 17
-4 25 -44 41 -121 52 -292 83 -442 82 -65 0 -118 -6 -136 -14z"/>
<path d="M1699 2671 c-73 -24 -109 -74 -109 -151 0 -22 2 -40 5 -40 2 0 30 7
62 15 143 37 391 5 605 -80 14 -5 20 6 37 63 12 38 21 74 21 80 0 15 -148 70
-249 93 -95 21 -330 34 -372 20z"/>
<path d="M1613 2400 c-72 -17 -122 -82 -123 -161 l0 -36 68 23 c128 44 318 27
474 -43 l60 -27 35 19 c35 19 93 84 93 104 0 7 -26 23 -57 37 -150 67 -439
111 -550 84z"/>
<path d="M1555 2120 c-55 -18 -62 -23 -74 -57 -42 -122 -160 -263 -368 -440
-155 -132 -235 -219 -275 -301 -27 -55 -33 -79 -36 -157 -3 -73 -1 -94 11
-107 32 -32 309 -94 465 -104 l102 -7 0 44 c1 122 64 286 161 414 29 39 97
121 151 184 171 198 236 295 286 429 l21 53 -47 20 c-120 52 -287 64 -397 29z"/>
</g>
</svg>
